<svg xmlns="http://www.w3.org/2000/svg" width="64" height="64" viewBox="0 0 64 64" fill="none">
  <defs>
    <!-- 渐变主色：可按需修改 stop-color -->
    <linearGradient id="g" x1="10" y1="10" x2="54" y2="54" gradientUnits="userSpaceOnUse">
      <stop stop-color="#3B82F6" />
      <stop offset="1" stop-color="#10B981" />
    </linearGradient>
    <!-- 箭头样式 -->
    <marker id="arrow" markerWidth="8" markerHeight="8" refX="6" refY="4" orient="auto">
      <path d="M0,0 L8,4 L0,8 Z" fill="url(#g)" />
    </marker>
  </defs>

  <!-- 循环箭头（上半圈） -->
  <path d="M12 28
           C12 14 28 8 36 12
           C44 16 52 22 52 32"
    stroke="url(#g)" stroke-width="3.5" stroke-linecap="round" stroke-linejoin="round"
    fill="none" marker-end="url(#arrow)" />

  <!-- 循环箭头（下半圈） -->
  <path d="M52 36
           C52 50 36 56 28 52
           C20 48 12 42 12 32"
    stroke="url(#g)" stroke-width="3.5" stroke-linecap="round" stroke-linejoin="round"
    fill="none" marker-end="url(#arrow)" />

  <!-- 三枚“币” -->
  <g stroke="#0F172A" stroke-opacity="0.9" stroke-width="2" fill="white">
    <circle cx="24" cy="28" r="6" />
    <circle cx="32" cy="38" r="6" />
    <circle cx="41" cy="23" r="6" />
  </g>

  <!-- “币”的高光小线，增强小尺寸可读性 -->
  <g stroke="#0F172A" stroke-opacity="0.9" stroke-width="2" stroke-linecap="round">
    <path d="M21 26 L23 26" />
    <path d="M29 36 L31 36" />
    <path d="M38 21 L40 21" />
  </g>
</svg>